<mxfile host="Electron" modified="2024-09-02T06:30:40.142Z" agent="Mozilla/5.0 (Macintosh; Intel Mac OS X 10_15_7) AppleWebKit/537.36 (KHTML, like Gecko) draw.io/22.0.3 Chrome/114.0.5735.289 Electron/25.8.4 Safari/537.36" etag="eqjCcR1KJk3eORPeFGY4" version="22.0.3" type="device">
  <diagram id="zMdPa7TFIofes7aEGqtK" name="Page-1">
    <mxGraphModel dx="1306" dy="838" grid="1" gridSize="10" guides="1" tooltips="1" connect="1" arrows="1" fold="1" page="1" pageScale="1" pageWidth="1169" pageHeight="827" math="0" shadow="0">
      <root>
        <mxCell id="0" />
        <mxCell id="1" parent="0" />
        <mxCell id="x8Ufa_XHc4xC65FokdQA-2" value="Create and encrypt a Secret" style="rounded=0;whiteSpace=wrap;html=1;spacingTop=0;spacingLeft=0;spacingBottom=0;spacing=5;" parent="1" vertex="1">
          <mxGeometry x="405" y="120" width="120" height="60" as="geometry" />
        </mxCell>
        <mxCell id="x8Ufa_XHc4xC65FokdQA-4" value="Bob&lt;br&gt;(Server)" style="shape=umlActor;verticalLabelPosition=bottom;verticalAlign=top;html=1;outlineConnect=0;" parent="1" vertex="1">
          <mxGeometry x="450" y="20" width="30" height="60" as="geometry" />
        </mxCell>
        <mxCell id="x8Ufa_XHc4xC65FokdQA-5" value="&lt;br&gt;&lt;br&gt;Alice&#39;s&lt;br&gt;Public&lt;br&gt;Key" style="shape=note;whiteSpace=wrap;html=1;backgroundOutline=1;darkOpacity=0.05;" parent="1" vertex="1">
          <mxGeometry x="380" y="194" width="80" height="100" as="geometry" />
        </mxCell>
        <mxCell id="x8Ufa_XHc4xC65FokdQA-6" value="&lt;br&gt;&lt;br&gt;Bob&#39;s&lt;br&gt;Secret" style="shape=note;whiteSpace=wrap;html=1;backgroundOutline=1;darkOpacity=0.05;" parent="1" vertex="1">
          <mxGeometry x="470" y="194" width="80" height="100" as="geometry" />
        </mxCell>
        <mxCell id="x8Ufa_XHc4xC65FokdQA-7" value="" style="html=1;verticalLabelPosition=bottom;align=center;labelBackgroundColor=#ffffff;verticalAlign=top;strokeWidth=2;strokeColor=#0080F0;shadow=0;dashed=0;shape=mxgraph.ios7.icons.locked;" parent="1" vertex="1">
          <mxGeometry x="484" y="197" width="24" height="30" as="geometry" />
        </mxCell>
        <mxCell id="x8Ufa_XHc4xC65FokdQA-8" style="edgeStyle=orthogonalEdgeStyle;rounded=0;orthogonalLoop=1;jettySize=auto;html=1;entryX=1;entryY=0.5;entryDx=0;entryDy=0;startArrow=none;startFill=0;endArrow=classic;endFill=1;" parent="1" edge="1" target="x8Ufa_XHc4xC65FokdQA-10">
          <mxGeometry relative="1" as="geometry">
            <mxPoint x="65" y="149.5" as="targetPoint" />
            <mxPoint x="400" y="150" as="sourcePoint" />
          </mxGeometry>
        </mxCell>
        <mxCell id="x8Ufa_XHc4xC65FokdQA-9" value="Encrypt Secret and send to Alice" style="edgeLabel;html=1;align=center;verticalAlign=middle;resizable=0;points=[];" parent="x8Ufa_XHc4xC65FokdQA-8" vertex="1" connectable="0">
          <mxGeometry x="-0.1083" relative="1" as="geometry">
            <mxPoint x="13" as="offset" />
          </mxGeometry>
        </mxCell>
        <mxCell id="x8Ufa_XHc4xC65FokdQA-10" value="Decrypt Bob&#39;s Secret" style="rounded=0;whiteSpace=wrap;html=1;spacingTop=0;spacingLeft=0;spacingBottom=0;spacing=5;" parent="1" vertex="1">
          <mxGeometry x="65" y="120" width="120" height="60" as="geometry" />
        </mxCell>
        <mxCell id="x8Ufa_XHc4xC65FokdQA-11" value="Alice&lt;br&gt;(Client)" style="shape=umlActor;verticalLabelPosition=bottom;verticalAlign=top;html=1;outlineConnect=0;" parent="1" vertex="1">
          <mxGeometry x="110" y="20" width="30" height="60" as="geometry" />
        </mxCell>
        <mxCell id="x8Ufa_XHc4xC65FokdQA-12" value="&lt;br&gt;&lt;br&gt;Alice&#39;s&lt;br&gt;Private&lt;br&gt;Key" style="shape=note;whiteSpace=wrap;html=1;backgroundOutline=1;darkOpacity=0.05;" parent="1" vertex="1">
          <mxGeometry x="40" y="194" width="80" height="100" as="geometry" />
        </mxCell>
        <mxCell id="x8Ufa_XHc4xC65FokdQA-13" value="" style="html=1;verticalLabelPosition=bottom;align=center;labelBackgroundColor=#ffffff;verticalAlign=top;strokeWidth=2;strokeColor=#0080F0;shadow=0;dashed=0;shape=mxgraph.ios7.icons.locked;" parent="1" vertex="1">
          <mxGeometry x="54" y="197" width="24" height="30" as="geometry" />
        </mxCell>
        <mxCell id="x8Ufa_XHc4xC65FokdQA-14" value="&lt;br&gt;&lt;br&gt;Bob&#39;s&lt;br&gt;Secret" style="shape=note;whiteSpace=wrap;html=1;backgroundOutline=1;darkOpacity=0.05;" parent="1" vertex="1">
          <mxGeometry x="130" y="194" width="80" height="100" as="geometry" />
        </mxCell>
        <mxCell id="x8Ufa_XHc4xC65FokdQA-15" value="" style="html=1;verticalLabelPosition=bottom;align=center;labelBackgroundColor=#ffffff;verticalAlign=top;strokeWidth=2;strokeColor=#0080F0;shadow=0;dashed=0;shape=mxgraph.ios7.icons.locked;" parent="1" vertex="1">
          <mxGeometry x="144" y="197" width="26" height="33" as="geometry" />
        </mxCell>
      </root>
    </mxGraphModel>
  </diagram>
</mxfile>
